<svg width="24" height="24" viewBox="0 0 24 24" fill="none" xmlns="http://www.w3.org/2000/svg">
<path d="M14.235 19C15.1 19 15.557 20.024 14.98 20.668C14.6052 21.0875 14.1459 21.4229 13.6324 21.6525C13.1188 21.8821 12.5625 22.0005 12 22C11.4375 22.0005 10.8812 21.8821 10.3676 21.6525C9.85407 21.4229 9.39482 21.0875 9.01999 20.668C8.46799 20.052 8.86199 19.089 9.65399 19.007L9.76399 19.001L14.235 19ZM12 2C13.358 2 14.506 2.903 14.875 4.141L14.921 4.312L14.929 4.355C16.0314 4.9769 16.9708 5.8511 17.6702 6.906C18.3696 7.9609 18.8092 9.16648 18.953 10.424L18.981 10.711L19 11V13.931L19.021 14.067C19.1579 14.8038 19.5657 15.4627 20.164 15.914L20.331 16.031L20.493 16.13C21.353 16.617 21.053 17.896 20.116 17.994L20 18H3.99999C2.97199 18 2.61299 16.636 3.50699 16.13C3.88802 15.9144 4.21724 15.618 4.47153 15.2616C4.72583 14.9052 4.89903 14.4974 4.97899 14.067L4.99999 13.924L5.00099 10.954C5.06197 9.64788 5.44215 8.37661 6.10828 7.25147C6.7744 6.12632 7.70616 5.18161 8.82199 4.5L9.06999 4.354L9.07999 4.311C9.22145 3.71303 9.54294 3.17284 10.0011 2.76334C10.4592 2.35384 11.032 2.09473 11.642 2.021L11.824 2.004L12 2Z" fill="white"/>
<circle cx="16.5" cy="5.5" r="2.5" fill="#FEC000"/>
</svg>
