<svg width="24" height="27" viewBox="0 0 24 27" fill="none" xmlns="http://www.w3.org/2000/svg">
<path fill-rule="evenodd" clip-rule="evenodd" d="M13.413 10.413C13.021 10.8043 12.55 11 12 11C11.4507 11.0007 10.98 10.805 10.588 10.413C10.196 10.021 10 9.55 10 9C10.0007 8.45067 10.1967 7.98 10.588 7.588C10.9793 7.196 11.45 7 12 7C12.5507 7.00067 13.0217 7.19667 13.413 7.588C13.8043 7.97933 14 8.45 14 9C14.0007 9.55067 13.805 10.0217 13.413 10.413Z" fill="#3E4F6C"/>
<path fill-rule="evenodd" clip-rule="evenodd" d="M12 26C10 22.5 7.31267 16.596 5.988 14.638C4.66333 12.68 4.00067 10.8673 4 9.2C4 6.7 4.80433 4.70833 6.413 3.225C8.02167 1.74167 9.884 1 12 1C14.1167 1 15.9793 1.74167 17.588 3.225C19.1967 4.70833 20.0007 6.7 20 9.2C20 10.8667 19.3377 12.6793 18.013 14.638C16.6883 16.5967 14 22 12 26ZM16.525 13.263C15.5417 14.7877 14.0333 18.1333 12 20C9.96667 18.134 8.45833 14.7883 7.475 13.263C6.49167 11.7377 6 10.3833 6 9.2C6.00067 7.384 6.58 5.89667 7.738 4.738C8.896 3.57933 10.3167 3 12 3C13.684 3.00067 15.105 3.58 16.263 4.738C17.421 5.896 18 7.38333 18 9.2C18 10.384 17.5083 11.7383 16.525 13.263Z" fill="#6B7078"/>
</svg>
