<svg width="87" height="82" viewBox="0 0 87 82" fill="none" xmlns="http://www.w3.org/2000/svg">
<path d="M21.75 30.75C27.7561 30.75 32.625 26.1609 32.625 20.5C32.625 14.8391 27.7561 10.25 21.75 10.25C15.7439 10.25 10.875 14.8391 10.875 20.5C10.875 26.1609 15.7439 30.75 21.75 30.75Z" stroke="#EEEDED" stroke-width="2" stroke-linecap="round" stroke-linejoin="round"/>
<path d="M21.75 71.75C27.7561 71.75 32.625 67.1609 32.625 61.5C32.625 55.8391 27.7561 51.25 21.75 51.25C15.7439 51.25 10.875 55.8391 10.875 61.5C10.875 67.1609 15.7439 71.75 21.75 71.75Z" stroke="#EEEDED" stroke-width="2" stroke-linecap="round" stroke-linejoin="round"/>
<path d="M72.5001 13.6667L29.4351 54.2567" stroke="#EEEDED" stroke-width="2" stroke-linecap="round" stroke-linejoin="round"/>
<path d="M52.4537 49.4733L72.5 68.3333" stroke="#EEEDED" stroke-width="2" stroke-linecap="round" stroke-linejoin="round"/>
<path d="M29.4351 27.7433L43.5001 41" stroke="#EEEDED" stroke-width="2" stroke-linecap="round" stroke-linejoin="round"/>
</svg>
