<svg width="92" height="78" viewBox="0 0 92 78" fill="none" xmlns="http://www.w3.org/2000/svg">
<path d="M46 0C20.5887 0 0 17.4556 0 39C0 60.5444 20.5887 78 46 78C71.4113 78 92 60.5444 92 39C92 17.4556 71.4113 0 46 0ZM46 15.0968C55.0145 15.0968 62.3226 21.2927 62.3226 28.9355C62.3226 36.5782 55.0145 42.7742 46 42.7742C36.9855 42.7742 29.6774 36.5782 29.6774 28.9355C29.6774 21.2927 36.9855 15.0968 46 15.0968ZM46 69.1935C35.1121 69.1935 25.3556 65.0105 18.8266 58.4685C22.3137 52.9016 29.1395 49.0645 37.0968 49.0645C37.5419 49.0645 37.9871 49.1274 38.4137 49.2375C40.825 49.898 43.3476 50.3226 46 50.3226C48.6524 50.3226 51.1936 49.898 53.5863 49.2375C54.0129 49.1274 54.4581 49.0645 54.9032 49.0645C62.8605 49.0645 69.6863 52.9016 73.1734 58.4685C66.6444 65.0105 56.8879 69.1935 46 69.1935Z" fill="#FEC000"/>
</svg>
